<svg xmlns="http://www.w3.org/2000/svg" xmlns:xlink="http://www.w3.org/1999/xlink" width="1712" zoomAndPan="magnify" viewBox="0 0 1284 617.24998" height="823" preserveAspectRatio="xMidYMid meet" version="1.2"><defs><clipPath id="cb8c4bbf70"><path d="M 986.515625 190.511719 L 1020.3125 190.511719 L 1020.3125 297.085938 L 986.515625 297.085938 Z M 986.515625 190.511719 "/></clipPath><clipPath id="9699526a8e"><path d="M 983.933594 136.910156 L 1021.996094 136.910156 L 1021.996094 174.992188 L 983.933594 174.992188 Z M 983.933594 136.910156 "/></clipPath><clipPath id="c46309e1ed"><path d="M 1002.964844 136.910156 C 992.453125 136.910156 983.933594 145.4375 983.933594 155.949219 C 983.933594 166.464844 992.453125 174.992188 1002.964844 174.992188 C 1013.476562 174.992188 1021.996094 166.464844 1021.996094 155.949219 C 1021.996094 145.4375 1013.476562 136.910156 1002.964844 136.910156 Z M 1002.964844 136.910156 "/></clipPath></defs><g id="8a2fa0786f"><path style=" stroke:none;fill-rule:nonzero;fill:#b8e0d2;fill-opacity:1;" d="M 848.242188 294.816406 L 838.367188 264.632812 L 778.574219 264.632812 L 768.683594 294.816406 L 731.058594 294.816406 L 788.714844 134.574219 L 828.214844 134.574219 L 885.882812 294.816406 Z M 787.917969 235.261719 L 829.023438 235.261719 L 808.464844 171.699219 Z M 787.917969 235.261719 "/><path style=" stroke:none;fill-rule:nonzero;fill:#b8e0d2;fill-opacity:1;" d="M 1171.679688 267.039062 L 1176.484375 267.039062 L 1176.484375 294.816406 C 1175.238281 295.347656 1173.851562 295.835938 1172.335938 296.28125 C 1170.824219 296.726562 1169.183594 296.953125 1167.40625 296.953125 C 1160.292969 296.953125 1153.882812 295.308594 1148.1875 292.023438 C 1142.484375 288.726562 1137.945312 284.3125 1134.570312 278.789062 C 1130.292969 284.3125 1125.085938 288.726562 1118.953125 292.023438 C 1112.816406 295.308594 1105.835938 296.953125 1098.003906 296.953125 C 1088.214844 296.953125 1079.316406 294.464844 1071.296875 289.480469 C 1063.285156 284.496094 1056.921875 277.820312 1052.203125 269.457031 C 1047.492188 261.082031 1045.136719 251.726562 1045.136719 241.394531 C 1045.136719 231.078125 1047.492188 221.734375 1052.203125 213.367188 C 1056.921875 204.996094 1063.285156 198.316406 1071.296875 193.328125 C 1079.316406 188.347656 1088.214844 185.855469 1098.003906 185.855469 C 1104.230469 185.855469 1109.878906 186.878906 1114.945312 188.929688 C 1120.019531 190.980469 1124.515625 193.78125 1128.4375 197.339844 L 1128.4375 187.992188 L 1162.335938 187.992188 L 1162.335938 256.628906 C 1162.335938 261.082031 1163.3125 263.929688 1165.269531 265.179688 C 1167.222656 266.421875 1169.359375 267.039062 1171.679688 267.039062 Z M 1104.679688 266.773438 C 1111.613281 266.773438 1117.574219 264.328125 1122.558594 259.4375 C 1127.535156 254.535156 1130.027344 248.523438 1130.027344 241.394531 C 1130.027344 234.28125 1127.535156 228.28125 1122.558594 223.386719 C 1117.574219 218.488281 1111.613281 216.035156 1104.679688 216.035156 C 1097.554688 216.035156 1091.546875 218.488281 1086.648438 223.386719 C 1081.757812 228.28125 1079.316406 234.28125 1079.316406 241.394531 C 1079.316406 248.523438 1081.757812 254.535156 1086.648438 259.4375 C 1091.546875 264.328125 1097.554688 266.773438 1104.679688 266.773438 Z M 1104.679688 266.773438 "/><path style=" stroke:none;fill-rule:nonzero;fill:#b8e0d2;fill-opacity:1;" d="M 961.902344 185.855469 C 963.503906 185.855469 965.058594 185.945312 966.566406 186.121094 C 968.085938 186.300781 969.460938 186.570312 970.703125 186.929688 L 970.703125 217.097656 C 969.460938 216.746094 967.996094 216.480469 966.304688 216.300781 C 964.605469 216.125 962.78125 216.035156 960.828125 216.035156 C 952.464844 216.035156 945.570312 218.441406 940.144531 223.246094 C 934.714844 228.054688 932 234.910156 932 243.816406 L 932 294.816406 L 897.835938 294.816406 L 897.835938 187.992188 L 932 187.992188 L 932 202.679688 C 935.554688 197.519531 939.871094 193.421875 944.949219 190.394531 C 950.019531 187.367188 955.671875 185.855469 961.902344 185.855469 Z M 961.902344 185.855469 "/><path style=" stroke:none;fill-rule:nonzero;fill:#b8e0d2;fill-opacity:1;" d="M 1230.691406 296.953125 C 1221.257812 296.953125 1212.175781 294.730469 1203.453125 290.273438 C 1194.738281 285.824219 1188.777344 279.503906 1185.574219 271.3125 L 1210.675781 258.765625 C 1213.160156 263.222656 1216.046875 266.207031 1219.332031 267.722656 C 1222.628906 269.234375 1225.703125 269.988281 1228.554688 269.988281 C 1231.398438 269.988281 1233.667969 269.410156 1235.355469 268.253906 C 1237.046875 267.089844 1237.898438 265.441406 1237.898438 263.308594 C 1237.898438 261.339844 1236.960938 259.605469 1235.089844 258.09375 C 1233.226562 256.589844 1229.894531 254.9375 1225.089844 253.148438 C 1220.992188 251.546875 1216.316406 249.542969 1211.066406 247.140625 C 1205.824219 244.734375 1201.242188 241.402344 1197.324219 237.136719 C 1193.410156 232.859375 1191.457031 227.160156 1191.457031 220.03125 C 1191.457031 213.988281 1193.097656 208.386719 1196.386719 203.222656 C 1199.683594 198.054688 1204.3125 193.867188 1210.269531 190.660156 C 1216.230469 187.457031 1223.210938 185.855469 1231.21875 185.855469 C 1238.695312 185.855469 1245.589844 187.191406 1251.90625 189.867188 C 1258.226562 192.53125 1263.347656 195.914062 1267.269531 200.007812 L 1250.171875 219.234375 C 1248.570312 217.28125 1246.304688 215.503906 1243.371094 213.898438 C 1240.441406 212.300781 1237.1875 211.496094 1233.621094 211.496094 C 1230.785156 211.496094 1228.648438 212.074219 1227.226562 213.226562 C 1225.800781 214.382812 1225.089844 215.847656 1225.089844 217.628906 C 1225.089844 219.59375 1226.019531 221.15625 1227.882812 222.308594 C 1229.753906 223.464844 1232.648438 224.847656 1236.570312 226.445312 C 1241.726562 228.40625 1246.796875 230.808594 1251.78125 233.65625 C 1256.761719 236.507812 1260.941406 240.207031 1264.324219 244.75 C 1267.699219 249.289062 1269.390625 255.113281 1269.390625 262.230469 C 1269.390625 272.210938 1265.964844 280.488281 1259.113281 287.074219 C 1252.269531 293.660156 1242.796875 296.953125 1230.691406 296.953125 Z M 1230.691406 296.953125 "/><path style=" stroke:none;fill-rule:nonzero;fill:#b8e0d2;fill-opacity:1;" d="M 208.621094 608.832031 C 180.730469 608.832031 154.6875 603.605469 130.5 593.148438 C 106.308594 582.683594 84.953125 568.1875 66.433594 549.65625 C 47.90625 531.125 33.414062 509.761719 22.957031 485.5625 C 12.503906 461.363281 7.277344 435.308594 7.277344 407.40625 C 7.277344 379.503906 12.503906 353.453125 22.957031 329.25 C 33.414062 305.054688 47.90625 283.6875 66.433594 265.15625 C 84.953125 246.628906 106.308594 232.132812 130.5 221.664062 C 154.6875 211.199219 180.730469 205.964844 208.621094 205.964844 C 247.410156 205.964844 282.710938 215.886719 314.527344 235.722656 C 346.339844 255.566406 370.527344 281.617188 387.097656 313.878906 L 312.5625 352.472656 C 302.972656 333.714844 289.027344 318.671875 270.722656 307.339844 C 252.417969 296.003906 231.71875 290.328125 208.621094 290.328125 C 186.832031 290.328125 167.113281 295.457031 149.453125 305.703125 C 131.800781 315.949219 117.855469 329.902344 107.613281 347.558594 C 97.382812 365.214844 92.265625 385.164062 92.265625 407.40625 C 92.265625 429.640625 97.382812 449.589844 107.613281 467.253906 C 117.855469 484.914062 131.800781 498.867188 149.453125 509.109375 C 167.113281 519.347656 186.832031 524.46875 208.621094 524.46875 C 231.71875 524.46875 252.417969 518.800781 270.722656 507.472656 C 289.027344 496.132812 302.972656 481.089844 312.5625 462.339844 L 387.097656 500.933594 C 370.527344 532.761719 346.339844 558.703125 314.527344 578.761719 C 282.710938 598.808594 247.410156 608.832031 208.621094 608.832031 Z M 208.621094 608.832031 "/><path style=" stroke:none;fill-rule:nonzero;fill:#b8e0d2;fill-opacity:1;" d="M 732.53125 535.59375 L 744.308594 535.59375 L 744.308594 603.605469 C 741.25 604.917969 737.871094 606.109375 734.167969 607.195312 C 730.464844 608.285156 726.433594 608.832031 722.078125 608.832031 C 704.636719 608.832031 688.945312 604.800781 675 596.738281 C 661.054688 588.679688 649.9375 577.886719 641.664062 564.371094 C 631.199219 577.886719 618.449219 588.679688 603.414062 596.738281 C 588.382812 604.800781 571.28125 608.832031 552.105469 608.832031 C 528.132812 608.832031 506.339844 602.730469 486.730469 590.527344 C 467.113281 578.316406 451.527344 561.964844 439.976562 541.476562 C 428.433594 520.984375 422.660156 498.089844 422.660156 472.796875 C 422.660156 447.515625 428.433594 424.632812 439.976562 404.144531 C 451.527344 383.648438 467.113281 367.296875 486.730469 355.09375 C 506.339844 342.882812 528.132812 336.773438 552.105469 336.773438 C 567.363281 336.773438 581.199219 339.28125 593.617188 344.296875 C 606.035156 349.3125 617.035156 356.179688 626.625 364.894531 L 626.625 342 L 709.660156 342 L 709.660156 510.078125 C 709.660156 520.984375 712.050781 527.960938 716.835938 531.023438 C 721.628906 534.074219 726.859375 535.59375 732.53125 535.59375 Z M 568.453125 534.9375 C 585.445312 534.9375 600.042969 528.945312 612.242188 516.960938 C 624.449219 504.96875 630.554688 490.242188 630.554688 472.796875 C 630.554688 455.359375 624.449219 440.648438 612.242188 428.660156 C 600.042969 416.667969 585.445312 410.667969 568.453125 410.667969 C 551.015625 410.667969 536.296875 416.667969 524.308594 428.660156 C 512.328125 440.648438 506.335938 455.359375 506.335938 472.796875 C 506.335938 490.242188 512.328125 504.96875 524.308594 516.960938 C 536.296875 528.945312 551.015625 534.9375 568.453125 534.9375 Z M 568.453125 534.9375 "/><path style=" stroke:none;fill-rule:nonzero;fill:#b8e0d2;fill-opacity:1;" d="M 949.800781 341.019531 C 953.730469 341.019531 957.542969 341.238281 961.25 341.675781 C 964.949219 342.113281 968.324219 342.761719 971.375 343.625 L 971.375 417.535156 C 968.324219 416.660156 964.730469 416.007812 960.59375 415.570312 C 956.453125 415.132812 951.988281 414.914062 947.195312 414.914062 C 926.703125 414.914062 909.816406 420.804688 896.527344 432.582031 C 883.234375 444.347656 876.589844 461.136719 876.589844 482.941406 L 876.589844 607.851562 L 792.914062 607.851562 L 792.914062 346.246094 L 876.589844 346.246094 L 876.589844 382.21875 C 885.304688 369.578125 895.871094 359.554688 908.289062 352.148438 C 920.714844 344.730469 934.550781 341.019531 949.800781 341.019531 Z M 949.800781 341.019531 "/><path style=" stroke:none;fill-rule:nonzero;fill:#b8e0d2;fill-opacity:1;" d="M 1135.882812 608.265625 C 1106.679688 608.265625 1081.179688 602.378906 1059.382812 590.613281 C 1037.59375 578.839844 1020.59375 562.707031 1008.386719 542.21875 C 996.1875 521.726562 990.089844 498.394531 990.089844 472.226562 C 990.089844 446.070312 996.1875 422.75 1008.386719 402.265625 C 1020.59375 381.769531 1037.59375 365.636719 1059.382812 353.871094 C 1081.179688 342.09375 1106.679688 336.203125 1135.882812 336.203125 C 1165.074219 336.203125 1190.5625 342.09375 1212.351562 353.871094 C 1234.148438 365.636719 1251.039062 381.769531 1263.019531 402.265625 C 1275.007812 422.75 1281.003906 446.070312 1281.003906 472.226562 C 1281.003906 498.394531 1275.007812 521.726562 1263.019531 542.21875 C 1251.039062 562.707031 1234.148438 578.839844 1212.351562 590.613281 C 1190.5625 602.378906 1165.074219 608.265625 1135.882812 608.265625 Z M 1135.882812 534.371094 C 1153.746094 533.933594 1168.5625 527.832031 1180.324219 516.0625 C 1192.09375 504.289062 1197.984375 489.675781 1197.984375 472.226562 C 1197.984375 454.355469 1192.09375 439.640625 1180.324219 428.09375 C 1168.5625 416.535156 1153.746094 410.535156 1135.882812 410.097656 C 1118.003906 410.535156 1103.179688 416.535156 1091.410156 428.09375 C 1079.644531 439.640625 1073.765625 454.355469 1073.765625 472.226562 C 1073.765625 489.675781 1079.644531 504.289062 1091.410156 516.0625 C 1103.179688 527.832031 1118.003906 533.933594 1135.882812 534.371094 Z M 1135.882812 534.371094 "/><g clip-rule="nonzero" clip-path="url(#cb8c4bbf70)"><path style=" stroke:none;fill-rule:nonzero;fill:#b8e0d2;fill-opacity:1;" d="M 986.515625 190.511719 L 1020.3125 190.511719 L 1020.3125 297.097656 L 986.515625 297.097656 Z M 986.515625 190.511719 "/></g><g clip-rule="nonzero" clip-path="url(#9699526a8e)"><g clip-rule="nonzero" clip-path="url(#c46309e1ed)"><path style=" stroke:none;fill-rule:nonzero;fill:#ffa1ac;fill-opacity:1;" d="M 983.933594 136.910156 L 1021.996094 136.910156 L 1021.996094 174.992188 L 983.933594 174.992188 Z M 983.933594 136.910156 "/></g></g><path style=" stroke:none;fill-rule:nonzero;fill:#fea0ab;fill-opacity:1;" d="M 556.089844 11.703125 C 561.046875 14.566406 565.648438 17.816406 569.800781 21.765625 C 570.597656 22.527344 571.4375 23.242188 572.308594 23.910156 C 574.039062 25.445312 575.472656 27.199219 576.753906 29.125 L 576.753906 30.039062 C 575.277344 30.902344 573.796875 31.757812 572.308594 32.605469 C 571.890625 32.851562 571.472656 33.097656 571.039062 33.351562 L 569.8125 34.046875 L 568.683594 34.699219 L 567.640625 35.054688 C 565.859375 34.460938 564.859375 33.214844 563.59375 31.863281 C 557.078125 25.132812 548.382812 20.316406 539.449219 17.640625 C 529.367188 14.839844 518.570312 14.257812 508.328125 16.667969 C 497.34375 19.542969 487.910156 24.992188 479.804688 32.917969 C 472.125 40.703125 467.472656 50.4375 464.65625 60.90625 C 462.375 70.8125 462.816406 81.457031 465.691406 91.179688 C 468.785156 100.890625 474.09375 110.085938 481.511719 117.144531 C 485.304688 120.488281 489.414062 123.324219 493.816406 125.808594 L 495.285156 126.644531 C 498.328125 128.277344 501.371094 129.472656 504.667969 130.480469 L 505.714844 130.804688 C 509.472656 131.894531 513.140625 132.414062 517.058594 133.105469 L 517.058594 115.773438 L 510.675781 114.40625 C 502.59375 111.632812 495.898438 107.566406 490.171875 101.179688 C 485.574219 95.59375 482.382812 88.402344 480.941406 81.34375 C 479.859375 73.894531 480.4375 66.519531 482.964844 59.425781 C 486.03125 51.957031 490.644531 45.546875 497.007812 40.527344 C 503.597656 35.769531 510.835938 33.414062 518.871094 32.503906 C 526.003906 31.84375 533.019531 33.296875 539.5625 36.121094 C 543.839844 38.09375 547.402344 40.433594 550.777344 43.71875 C 548.851562 45.222656 546.777344 46.332031 544.625 47.480469 L 543.445312 48.132812 L 542.304688 48.742188 L 541.269531 49.304688 C 540.296875 49.648438 540.296875 49.648438 539.335938 49.515625 C 538.144531 49.070312 537.058594 48.480469 535.941406 47.882812 C 531.011719 45.371094 525.996094 44.476562 520.488281 44.535156 C 515.226562 44.855469 510.078125 46.339844 505.621094 49.179688 C 500.785156 52.648438 497.445312 56.429688 494.925781 61.808594 C 492.492188 67.46875 491.964844 72.992188 492.628906 79.105469 C 493.597656 84.527344 496.058594 89.484375 499.371094 93.855469 C 502.867188 97.863281 507.53125 100.722656 512.5 102.550781 C 513.460938 102.8125 514.421875 103.058594 515.390625 103.292969 L 516.859375 103.652344 L 517.96875 103.917969 L 517.960938 102.894531 C 517.921875 96.324219 517.929688 89.757812 518.089844 83.191406 C 518.105469 82.550781 518.117188 81.910156 518.125 81.273438 C 518.140625 80.375 518.164062 79.476562 518.191406 78.578125 L 518.226562 77.023438 C 518.445312 75.484375 518.894531 74.617188 519.792969 73.363281 C 520.617188 72.535156 520.617188 72.535156 521.613281 71.996094 C 522.839844 71.710938 522.839844 71.710938 524.347656 71.996094 C 527.253906 73.765625 529.695312 76.296875 532.183594 78.597656 C 533.378906 79.671875 534.597656 80.683594 535.855469 81.6875 C 538.351562 83.695312 540.667969 85.871094 542.972656 88.09375 L 543.8125 88.894531 L 544.554688 89.613281 C 545.367188 90.285156 546.175781 90.714844 547.132812 91.148438 L 547.519531 90.152344 C 548.019531 88.925781 548.578125 87.75 549.15625 86.558594 C 550.492188 83.617188 551.777344 80.382812 551.632812 77.105469 C 551.609375 75.566406 551.679688 74.375 552.144531 72.90625 C 553.761719 71.378906 555.605469 70.523438 557.613281 69.601562 L 559.175781 68.820312 C 562.890625 66.976562 562.890625 66.976562 563.539062 66.976562 C 564.8125 73.316406 564.367188 80.449219 562.332031 86.566406 C 560.691406 91.171875 558.515625 95.304688 555.789062 99.355469 L 556.992188 100.378906 C 560.238281 103.140625 563.421875 105.945312 566.535156 108.851562 C 567.636719 109.890625 567.636719 109.890625 569.007812 110.757812 L 569.355469 110.011719 C 570.035156 108.710938 570.8125 107.496094 571.597656 106.253906 C 577.300781 97.046875 580.738281 87.160156 581.277344 76.289062 C 581.464844 70.269531 580.613281 64.214844 579.488281 58.3125 C 586.140625 54.460938 586.140625 54.460938 589.511719 52.839844 C 590.730469 55.398438 591.34375 57.867188 591.847656 60.652344 L 592.085938 61.9375 C 592.65625 65.132812 593.058594 68.289062 593.15625 71.539062 L 593.214844 72.910156 C 593.476562 85.308594 590.453125 97.546875 584.503906 108.417969 C 582.78125 111.460938 580.914062 114.523438 578.671875 117.210938 L 578.121094 118.054688 C 578.460938 119.457031 578.460938 119.457031 579.492188 120.246094 L 580.710938 121.191406 C 582.824219 122.875 584.816406 124.636719 586.777344 126.492188 C 589.019531 128.597656 591.339844 130.613281 593.738281 132.535156 C 595.621094 134.089844 597.398438 135.753906 599.191406 137.414062 C 601.265625 139.328125 603.394531 141.171875 605.542969 143.003906 C 608.167969 145.242188 610.769531 147.488281 613.292969 149.835938 C 614.949219 151.378906 616.660156 152.859375 618.421875 154.28125 C 620.597656 156.035156 622.636719 157.898438 624.675781 159.808594 C 626.195312 161.226562 627.765625 162.585938 629.386719 163.886719 C 631.847656 165.867188 634.148438 167.992188 636.457031 170.148438 C 638.5625 172.109375 640.734375 173.984375 642.925781 175.851562 C 645.90625 178.402344 648.855469 180.972656 651.746094 183.625 C 653.824219 185.523438 655.957031 187.359375 658.082031 189.199219 C 661.046875 191.761719 663.996094 194.335938 666.898438 196.964844 C 668.902344 198.773438 670.933594 200.546875 672.988281 202.292969 C 675.613281 204.527344 678.210938 206.773438 680.738281 209.121094 C 682.390625 210.664062 684.101562 212.148438 685.863281 213.566406 C 688.042969 215.320312 690.082031 217.1875 692.121094 219.097656 C 693.628906 220.503906 695.1875 221.855469 696.800781 223.144531 C 699.113281 225 701.273438 226.988281 703.433594 229.019531 C 705.144531 230.632812 706.882812 232.1875 708.699219 233.679688 C 709.46875 234.457031 709.867188 235.152344 710.269531 236.171875 C 710.242188 237.507812 710.242188 237.507812 709.816406 238.90625 C 708.789062 240.1875 708.789062 240.1875 707.539062 241.1875 C 705.816406 241.679688 704.304688 241.648438 702.527344 241.507812 L 700.863281 241.382812 L 699.046875 241.234375 L 697.117188 241.085938 C 695.363281 240.953125 693.609375 240.8125 691.855469 240.671875 C 689.992188 240.527344 688.132812 240.382812 686.269531 240.238281 C 683.097656 239.992188 679.925781 239.742188 676.753906 239.492188 C 671.835938 239.105469 666.917969 238.722656 662.003906 238.339844 L 657.121094 237.960938 L 655.910156 237.867188 C 653.097656 237.648438 650.28125 237.429688 647.46875 237.207031 C 636.050781 236.316406 624.632812 235.433594 613.210938 234.570312 L 608.941406 234.246094 C 607.351562 234.125 605.761719 234.003906 604.167969 233.882812 L 602.566406 233.761719 C 601.59375 233.6875 600.617188 233.617188 599.644531 233.546875 C 598.574219 233.464844 597.507812 233.371094 596.441406 233.273438 L 594.710938 233.117188 L 593.140625 232.96875 C 591.820312 232.890625 591.820312 232.890625 590.8125 233.390625 C 589.90625 234.070312 589.296875 234.820312 588.601562 235.714844 L 587.507812 237.0625 C 586.648438 238.136719 585.800781 239.21875 584.964844 240.3125 C 583.554688 242.152344 582.09375 243.953125 580.625 245.746094 C 578.777344 248.007812 576.957031 250.289062 575.15625 252.585938 C 573.117188 255.207031 571.03125 257.785156 568.929688 260.359375 C 567.339844 262.3125 565.769531 264.28125 564.222656 266.269531 C 562.179688 268.886719 560.097656 271.464844 558 274.035156 C 556.160156 276.300781 554.339844 278.585938 552.546875 280.890625 C 550.96875 282.910156 549.351562 284.890625 547.722656 286.871094 C 546.558594 288.304688 545.421875 289.753906 544.285156 291.207031 C 541.929688 294.226562 539.519531 297.199219 537.101562 300.164062 C 536.035156 301.476562 534.972656 302.796875 533.917969 304.121094 C 532.113281 306.386719 530.28125 308.632812 528.449219 310.878906 C 526.992188 312.671875 525.550781 314.480469 524.128906 316.300781 C 523.144531 317.566406 522.152344 318.824219 521.160156 320.082031 L 520.234375 321.273438 C 519.0625 322.71875 518.328125 323.589844 516.574219 324.273438 C 514.90625 324.164062 513.902344 323.710938 512.5 322.816406 C 511.589844 321.449219 511.589844 321.449219 511.476562 320.035156 L 511.484375 318.273438 L 511.484375 317.304688 C 511.488281 316.246094 511.496094 315.1875 511.503906 314.128906 L 511.515625 311.890625 C 511.558594 304.765625 511.746094 297.644531 511.972656 290.519531 C 512.03125 288.699219 512.085938 286.878906 512.140625 285.054688 C 512.238281 281.917969 512.335938 278.777344 512.433594 275.640625 C 512.589844 270.664062 512.742188 265.691406 512.894531 260.714844 L 513.050781 255.570312 L 513.089844 254.269531 C 513.171875 251.640625 513.25 249.011719 513.332031 246.382812 C 513.722656 233.691406 514.101562 221.003906 514.46875 208.3125 L 514.667969 201.601562 C 514.867188 194.707031 515.066406 187.808594 515.265625 180.914062 C 515.371094 177.285156 515.476562 173.65625 515.585938 170.027344 C 515.648438 167.828125 515.710938 165.625 515.773438 163.421875 C 515.8125 162.078125 515.851562 160.730469 515.894531 159.386719 C 515.917969 158.488281 515.945312 157.59375 515.96875 156.699219 C 516.089844 152.777344 516.316406 148.875 516.601562 144.960938 L 515.007812 144.8125 C 503.164062 143.691406 491.945312 139.574219 482.082031 132.933594 C 470.910156 124.902344 462.652344 115.039062 456.957031 102.511719 C 452.746094 92.921875 450.335938 82.046875 450.980469 71.539062 L 451.039062 70.601562 C 451.871094 58 455.558594 45.824219 462.527344 35.230469 C 465.046875 31.527344 467.925781 28.242188 471.03125 25.023438 L 472.222656 23.742188 C 480.261719 15.328125 491.121094 9.328125 502.21875 5.984375 C 520.027344 0.882812 539.777344 2.707031 556.089844 11.703125 M 517.058594 104.375 L 517.511719 105.285156 Z M 548.957031 135.839844 C 548.269531 141.015625 547.742188 146.191406 547.304688 151.394531 L 547.101562 153.792969 C 546.917969 155.933594 546.738281 158.078125 546.554688 160.222656 C 546.40625 162.019531 546.253906 163.8125 546.101562 165.605469 C 545.742188 169.835938 545.386719 174.066406 545.03125 178.292969 C 544.664062 182.65625 544.292969 187.019531 543.921875 191.378906 C 543.601562 195.132812 543.285156 198.886719 542.96875 202.640625 C 542.78125 204.882812 542.589844 207.121094 542.398438 209.359375 C 542.21875 211.457031 542.042969 213.554688 541.867188 215.65625 C 541.804688 216.425781 541.738281 217.195312 541.671875 217.964844 C 541.582031 219.015625 541.492188 220.066406 541.40625 221.117188 L 541.257812 222.898438 C 541.125 224.328125 541.125 224.328125 541.664062 225.679688 C 544.558594 222.039062 547.246094 218.300781 549.851562 214.445312 C 551.5625 211.929688 553.3125 209.441406 555.109375 206.984375 C 557.394531 203.839844 559.609375 200.65625 561.792969 197.441406 C 563.523438 194.898438 565.273438 192.367188 567.042969 189.851562 L 567.738281 188.859375 L 568.386719 187.941406 C 568.570312 187.675781 568.757812 187.410156 568.949219 187.140625 C 569.460938 186.460938 569.460938 186.460938 570.375 185.550781 C 571.621094 185.621094 572.800781 185.75 574.035156 185.929688 L 575.199219 186.089844 C 576.484375 186.265625 577.773438 186.449219 579.058594 186.632812 C 579.960938 186.757812 580.863281 186.882812 581.769531 187.007812 C 584.804688 187.425781 587.84375 187.855469 590.878906 188.285156 L 599.722656 189.535156 C 602.636719 189.945312 605.546875 190.359375 608.457031 190.773438 L 611.671875 191.230469 L 613.160156 191.449219 L 614.535156 191.644531 L 615.730469 191.8125 C 616.875 191.9375 617.984375 191.957031 619.132812 191.933594 C 617.539062 190.304688 615.867188 188.753906 614.121094 187.289062 L 613.335938 186.628906 C 611.375 184.980469 609.363281 183.410156 607.324219 181.859375 C 605.300781 180.320312 603.328125 178.722656 601.359375 177.113281 C 598.691406 174.933594 595.988281 172.796875 593.25 170.707031 C 589.039062 167.488281 584.910156 164.171875 580.804688 160.816406 C 578.9375 159.292969 577.046875 157.796875 575.128906 156.332031 C 572.703125 154.480469 570.316406 152.589844 567.9375 150.675781 C 565.234375 148.507812 562.511719 146.363281 559.78125 144.222656 C 558.953125 143.570312 558.121094 142.917969 557.292969 142.261719 C 554.535156 140.085938 551.777344 137.929688 548.957031 135.839844 "/><path style=" stroke:none;fill-rule:nonzero;fill:#fecfd6;fill-opacity:1;" d="M 589.054688 52.839844 L 589.96875 53.296875 C 593.859375 64.808594 593.988281 77.328125 591.714844 89.179688 C 589.636719 99.097656 585.207031 109.386719 578.671875 117.210938 L 578.121094 118.054688 C 578.460938 119.457031 578.460938 119.457031 579.492188 120.246094 L 580.710938 121.191406 C 582.824219 122.875 584.816406 124.636719 586.777344 126.492188 C 589.019531 128.597656 591.339844 130.613281 593.738281 132.535156 C 595.621094 134.089844 597.398438 135.753906 599.191406 137.414062 C 601.265625 139.328125 603.394531 141.171875 605.542969 143.003906 C 608.167969 145.242188 610.769531 147.488281 613.292969 149.835938 C 614.949219 151.378906 616.660156 152.859375 618.421875 154.28125 C 620.597656 156.035156 622.636719 157.898438 624.675781 159.808594 C 626.195312 161.226562 627.765625 162.585938 629.386719 163.886719 C 631.847656 165.867188 634.148438 167.992188 636.457031 170.148438 C 638.5625 172.109375 640.734375 173.984375 642.925781 175.851562 C 645.90625 178.402344 648.855469 180.972656 651.746094 183.625 C 653.824219 185.523438 655.957031 187.359375 658.082031 189.199219 C 661.046875 191.761719 663.996094 194.335938 666.898438 196.964844 C 668.902344 198.773438 670.933594 200.546875 672.988281 202.292969 C 675.613281 204.527344 678.210938 206.773438 680.738281 209.121094 C 682.390625 210.664062 684.101562 212.148438 685.863281 213.566406 C 688.042969 215.320312 690.082031 217.1875 692.121094 219.097656 C 693.628906 220.503906 695.1875 221.855469 696.800781 223.144531 C 699.113281 225 701.273438 226.988281 703.433594 229.019531 C 705.144531 230.632812 706.882812 232.1875 708.699219 233.679688 C 709.46875 234.457031 709.867188 235.152344 710.269531 236.171875 C 710.242188 237.511719 710.242188 237.511719 709.816406 238.90625 C 708.789062 240.1875 708.789062 240.1875 707.539062 241.1875 C 705.816406 241.679688 704.304688 241.648438 702.527344 241.507812 L 700.863281 241.382812 L 699.046875 241.234375 L 697.117188 241.085938 C 695.363281 240.953125 693.609375 240.8125 691.855469 240.671875 C 689.992188 240.527344 688.132812 240.382812 686.269531 240.238281 C 683.097656 239.992188 679.925781 239.742188 676.753906 239.492188 C 672.246094 239.140625 667.734375 238.785156 663.226562 238.4375 L 655.910156 237.867188 C 653.09375 237.648438 650.28125 237.429688 647.464844 237.207031 L 646.28125 237.117188 L 645.105469 237.023438 C 634.484375 236.191406 623.859375 235.375 613.238281 234.570312 L 608.980469 234.246094 L 604.214844 233.882812 L 602.617188 233.761719 L 601.121094 233.648438 L 599.683594 233.535156 C 598.570312 233.460938 597.453125 233.410156 596.335938 233.386719 L 595.394531 233.351562 C 594.523438 233.324219 593.648438 233.300781 592.773438 233.285156 L 591.335938 232.976562 C 589.875 231.332031 589.304688 229.570312 588.601562 227.503906 C 588.230469 226.625 587.847656 225.75 587.457031 224.882812 C 586.890625 223.613281 586.351562 222.332031 585.8125 221.050781 C 585.21875 219.65625 584.628906 218.261719 584.03125 216.867188 C 583.726562 216.152344 583.421875 215.433594 583.117188 214.71875 C 581.722656 211.4375 580.3125 208.160156 578.894531 204.890625 C 578.53125 204.046875 578.164062 203.203125 577.800781 202.359375 C 576.585938 199.546875 575.34375 196.75 574.070312 193.964844 C 573.382812 192.449219 572.710938 190.925781 572.054688 189.398438 L 571.347656 187.769531 C 570.828125 186.460938 570.828125 186.460938 570.828125 185.550781 C 576.046875 185.789062 581.152344 186.363281 586.316406 187.132812 L 588.605469 187.464844 C 590.59375 187.753906 592.582031 188.042969 594.566406 188.335938 C 597.753906 188.804688 600.9375 189.269531 604.125 189.730469 C 605.226562 189.890625 606.324219 190.054688 607.425781 190.21875 C 611.167969 190.765625 614.898438 191.230469 618.675781 191.476562 C 614.671875 188.148438 610.65625 184.851562 606.515625 181.699219 C 604.765625 180.359375 603.0625 178.964844 601.359375 177.570312 C 598.691406 175.386719 595.988281 173.253906 593.25 171.160156 C 589.039062 167.941406 584.910156 164.625 580.804688 161.273438 C 578.9375 159.75 577.046875 158.253906 575.128906 156.789062 C 572.703125 154.9375 570.316406 153.042969 567.9375 151.132812 C 566.015625 149.585938 564.082031 148.054688 562.140625 146.527344 L 561.355469 145.910156 C 560.007812 144.851562 558.660156 143.800781 557.308594 142.75 L 556.464844 142.09375 C 555.945312 141.6875 555.425781 141.285156 554.90625 140.882812 C 554.128906 140.277344 553.367188 139.65625 552.601562 139.03125 L 551.578125 138.242188 C 549.25 136.34375 547.914062 134.652344 546.796875 131.867188 L 546.277344 130.480469 C 545.863281 129.4375 545.445312 128.394531 545.023438 127.351562 L 544.679688 126.480469 C 543.0625 122.421875 541.308594 118.421875 539.570312 114.414062 C 538.996094 113.089844 538.425781 111.761719 537.851562 110.4375 C 536.292969 106.820312 534.730469 103.207031 533.085938 99.628906 C 531.933594 97.082031 530.835938 94.511719 529.730469 91.945312 C 529.210938 90.738281 528.6875 89.53125 528.167969 88.324219 L 527.777344 87.417969 C 526.933594 85.46875 526.085938 83.527344 525.226562 81.589844 L 524.585938 80.128906 C 524.1875 79.226562 523.789062 78.328125 523.390625 77.429688 L 522.859375 76.222656 L 522.394531 75.175781 C 522.070312 74.273438 522.070312 74.273438 522.070312 72.90625 L 518.878906 75.1875 C 519.324219 74.113281 519.761719 73.390625 520.589844 72.566406 C 521.613281 71.996094 521.613281 71.996094 522.839844 71.710938 C 524.792969 72.078125 525.804688 72.933594 527.320312 74.191406 C 528.957031 75.640625 530.578125 77.109375 532.183594 78.597656 C 533.378906 79.671875 534.597656 80.683594 535.855469 81.6875 C 538.351562 83.695312 540.667969 85.871094 542.972656 88.09375 L 543.8125 88.894531 L 544.554688 89.613281 C 545.367188 90.285156 546.175781 90.714844 547.132812 91.148438 L 547.519531 90.152344 C 548.019531 88.925781 548.578125 87.75 549.15625 86.558594 C 550.492188 83.617188 551.777344 80.382812 551.632812 77.105469 C 551.609375 75.566406 551.679688 74.375 552.144531 72.90625 C 553.761719 71.378906 555.605469 70.523438 557.613281 69.601562 L 559.175781 68.820312 C 562.890625 66.976562 562.890625 66.976562 563.539062 66.976562 C 564.8125 73.316406 564.367188 80.449219 562.332031 86.566406 C 560.691406 91.171875 558.515625 95.304688 555.789062 99.355469 L 556.992188 100.378906 C 560.238281 103.140625 563.421875 105.945312 566.535156 108.851562 C 567.636719 109.890625 567.636719 109.890625 569.007812 110.757812 L 569.355469 110.011719 C 570.035156 108.710938 570.8125 107.496094 571.597656 106.253906 C 577.300781 97.046875 580.738281 87.160156 581.277344 76.289062 C 581.464844 70.269531 580.613281 64.214844 579.488281 58.3125 C 584.160156 55.640625 584.160156 55.640625 585.007812 55.160156 C 585.597656 54.820312 586.179688 54.472656 586.757812 54.121094 C 587.507812 53.667969 588.28125 53.25 589.058594 52.839844 "/><path style=" stroke:none;fill-rule:nonzero;fill:#809acf;fill-opacity:1;" d="M 556.089844 11.703125 C 561.046875 14.566406 565.648438 17.816406 569.800781 21.765625 C 570.597656 22.527344 571.4375 23.242188 572.308594 23.910156 C 574.039062 25.445312 575.472656 27.199219 576.753906 29.125 L 576.753906 30.039062 C 575.277344 30.902344 573.796875 31.757812 572.308594 32.605469 C 571.890625 32.851562 571.472656 33.097656 571.039062 33.351562 L 569.8125 34.046875 L 568.683594 34.699219 L 567.640625 35.054688 C 565.859375 34.460938 564.859375 33.214844 563.59375 31.863281 C 557.078125 25.132812 548.382812 20.316406 539.449219 17.640625 C 529.367188 14.839844 518.570312 14.257812 508.328125 16.667969 C 497.34375 19.542969 487.910156 24.992188 479.804688 32.917969 C 472.125 40.703125 467.472656 50.4375 464.65625 60.90625 C 462.375 70.8125 462.816406 81.457031 465.691406 91.179688 C 468.785156 100.890625 474.09375 110.085938 481.511719 117.144531 C 485.304688 120.488281 489.414062 123.324219 493.816406 125.808594 L 495.285156 126.644531 C 502.09375 130.292969 509.480469 131.929688 517.058594 133.105469 L 516.601562 144.960938 C 504.113281 143.785156 492.527344 139.964844 482.082031 132.933594 C 470.910156 124.902344 462.652344 115.039062 456.957031 102.511719 C 452.746094 92.921875 450.335938 82.046875 450.980469 71.539062 L 451.039062 70.601562 C 451.871094 58 455.558594 45.824219 462.527344 35.230469 C 465.046875 31.527344 467.925781 28.242188 471.03125 25.023438 L 472.222656 23.742188 C 480.261719 15.328125 491.121094 9.328125 502.21875 5.984375 C 520.027344 0.882812 539.777344 2.707031 556.089844 11.703125 "/><path style=" stroke:none;fill-rule:nonzero;fill:#809acf;fill-opacity:1;" d="M 541.207031 36.878906 C 544.839844 38.710938 547.863281 40.886719 550.777344 43.71875 C 548.851562 45.222656 546.777344 46.332031 544.625 47.480469 L 543.445312 48.132812 L 542.304688 48.742188 L 541.269531 49.304688 C 540.296875 49.648438 540.296875 49.648438 539.335938 49.515625 C 538.144531 49.070312 537.058594 48.480469 535.941406 47.882812 C 531.011719 45.371094 525.996094 44.476562 520.488281 44.535156 C 515.226562 44.855469 510.078125 46.339844 505.621094 49.179688 C 500.785156 52.648438 497.445312 56.429688 494.925781 61.808594 C 492.492188 67.46875 491.964844 72.992188 492.628906 79.105469 C 493.597656 84.527344 496.058594 89.484375 499.371094 93.855469 C 502.847656 97.835938 507.539062 100.777344 512.5 102.550781 C 514.308594 103.070312 516.128906 103.523438 517.96875 103.917969 L 517.511719 105.285156 C 517.476562 106.09375 517.464844 106.90625 517.46875 107.714844 L 517.472656 109.132812 L 517.484375 110.617188 L 517.492188 112.113281 C 517.496094 113.332031 517.503906 114.554688 517.511719 115.773438 C 509.835938 114.46875 502.667969 112.015625 496.4375 107.167969 C 490.023438 101.757812 485.859375 95.566406 482.730469 87.832031 C 480.234375 80.75 479.800781 73.019531 481.140625 65.636719 C 482.949219 57.882812 486.585938 50.933594 491.992188 45.089844 C 496.902344 39.984375 502.742188 36.359375 509.496094 34.246094 C 520.347656 31.175781 530.996094 32.167969 541.207031 36.878906 "/><path style=" stroke:none;fill-rule:nonzero;fill:#819bcf;fill-opacity:1;" d="M 589.054688 52.839844 L 589.96875 53.296875 C 593.859375 64.808594 593.988281 77.328125 591.714844 89.179688 C 589.691406 98.835938 585.445312 108.351562 579.488281 116.230469 C 578.742188 117.007812 577.984375 117.765625 577.207031 118.511719 C 576.269531 117.648438 575.328125 116.78125 574.390625 115.917969 C 574.125 115.675781 573.863281 115.433594 573.589844 115.183594 C 572.027344 113.746094 570.5 112.269531 569.007812 110.757812 C 569.75 109.175781 570.660156 107.730469 571.597656 106.253906 C 577.300781 97.046875 580.738281 87.160156 581.277344 76.289062 C 581.464844 70.269531 580.613281 64.214844 579.488281 58.3125 C 584.160156 55.640625 584.160156 55.640625 585.007812 55.160156 C 585.597656 54.820312 586.179688 54.472656 586.757812 54.121094 C 587.507812 53.667969 588.28125 53.25 589.054688 52.839844 M 563.539062 66.976562 C 564.8125 73.316406 564.367188 80.449219 562.332031 86.566406 C 560.699219 91.148438 558.558594 95.359375 555.789062 99.355469 C 553.785156 97.644531 551.792969 95.914062 549.820312 94.164062 C 548.949219 93.421875 548.054688 92.738281 547.132812 92.0625 C 547.394531 90.425781 547.828125 89.222656 548.640625 87.785156 C 550.292969 84.570312 551.765625 80.726562 551.648438 77.058594 C 551.625 75.539062 551.683594 74.359375 552.144531 72.90625 C 553.761719 71.378906 555.605469 70.523438 557.613281 69.601562 L 559.175781 68.820312 C 562.890625 66.976562 562.890625 66.976562 563.539062 66.976562 "/></g></svg>