<svg xmlns="http://www.w3.org/2000/svg" xmlns:xlink="http://www.w3.org/1999/xlink" width="110" zoomAndPan="magnify" viewBox="0 0 82.5 82.499998" height="110" preserveAspectRatio="xMidYMid meet" version="1.2"><defs><clipPath id="226b7c9c7c"><path d="M 0 0 L 82.003906 0 L 82.003906 82.003906 L 0 82.003906 Z M 0 0 "/></clipPath></defs><g id="8d2f4cab53"><g clip-rule="nonzero" clip-path="url(#226b7c9c7c)"><path style=" stroke:none;fill-rule:nonzero;fill:#ffffff;fill-opacity:1;" d="M 41 0 C 39.660156 0 38.320312 0.0664062 36.984375 0.199219 C 35.644531 0.328125 34.320312 0.527344 33.003906 0.789062 C 31.683594 1.050781 30.382812 1.375 29.097656 1.765625 C 27.8125 2.15625 26.550781 2.605469 25.3125 3.121094 C 24.070312 3.636719 22.859375 4.207031 21.671875 4.839844 C 20.488281 5.472656 19.339844 6.164062 18.222656 6.910156 C 17.105469 7.65625 16.027344 8.453125 14.992188 9.308594 C 13.953125 10.160156 12.957031 11.058594 12.007812 12.007812 C 11.058594 12.957031 10.160156 13.953125 9.308594 14.992188 C 8.453125 16.027344 7.65625 17.105469 6.910156 18.222656 C 6.164062 19.339844 5.472656 20.488281 4.839844 21.671875 C 4.207031 22.859375 3.636719 24.070312 3.121094 25.3125 C 2.605469 26.550781 2.15625 27.8125 1.765625 29.097656 C 1.375 30.382812 1.050781 31.683594 0.789062 33.003906 C 0.527344 34.320312 0.328125 35.644531 0.199219 36.984375 C 0.0664062 38.320312 0 39.660156 0 41 C 0 42.34375 0.0664062 43.683594 0.199219 45.019531 C 0.328125 46.355469 0.527344 47.683594 0.789062 49 C 1.050781 50.316406 1.375 51.617188 1.765625 52.902344 C 2.15625 54.1875 2.605469 55.453125 3.121094 56.691406 C 3.636719 57.933594 4.207031 59.144531 4.839844 60.328125 C 5.472656 61.515625 6.164062 62.664062 6.910156 63.78125 C 7.65625 64.898438 8.453125 65.972656 9.308594 67.011719 C 10.160156 68.050781 11.058594 69.042969 12.007812 69.992188 C 12.957031 70.945312 13.953125 71.84375 14.992188 72.695312 C 16.027344 73.546875 17.105469 74.347656 18.222656 75.09375 C 19.339844 75.839844 20.488281 76.527344 21.671875 77.160156 C 22.859375 77.792969 24.070312 78.367188 25.3125 78.882812 C 26.550781 79.394531 27.8125 79.847656 29.097656 80.238281 C 30.382812 80.628906 31.683594 80.953125 33.003906 81.214844 C 34.320312 81.476562 35.644531 81.675781 36.984375 81.804688 C 38.320312 81.9375 39.660156 82.003906 41 82.003906 C 42.34375 82.003906 43.683594 81.9375 45.019531 81.804688 C 46.355469 81.675781 47.683594 81.476562 49 81.214844 C 50.316406 80.953125 51.617188 80.628906 52.902344 80.238281 C 54.1875 79.847656 55.453125 79.394531 56.691406 78.882812 C 57.933594 78.367188 59.144531 77.792969 60.328125 77.160156 C 61.515625 76.527344 62.664062 75.839844 63.78125 75.09375 C 64.898438 74.347656 65.972656 73.546875 67.011719 72.695312 C 68.050781 71.84375 69.042969 70.945312 69.992188 69.992188 C 70.945312 69.042969 71.84375 68.050781 72.695312 67.011719 C 73.546875 65.972656 74.347656 64.898438 75.09375 63.78125 C 75.839844 62.664062 76.527344 61.515625 77.160156 60.328125 C 77.792969 59.144531 78.367188 57.933594 78.882812 56.691406 C 79.394531 55.453125 79.847656 54.1875 80.238281 52.902344 C 80.628906 51.617188 80.953125 50.316406 81.214844 49 C 81.476562 47.683594 81.675781 46.355469 81.804688 45.019531 C 81.9375 43.683594 82.003906 42.34375 82.003906 41 C 82.003906 39.660156 81.9375 38.320312 81.804688 36.984375 C 81.675781 35.644531 81.476562 34.320312 81.214844 33.003906 C 80.953125 31.683594 80.628906 30.382812 80.238281 29.097656 C 79.847656 27.8125 79.394531 26.550781 78.882812 25.3125 C 78.367188 24.070312 77.792969 22.859375 77.160156 21.671875 C 76.527344 20.488281 75.839844 19.339844 75.09375 18.222656 C 74.347656 17.105469 73.546875 16.027344 72.695312 14.992188 C 71.84375 13.953125 70.945312 12.957031 69.992188 12.007812 C 69.042969 11.058594 68.050781 10.160156 67.011719 9.308594 C 65.972656 8.453125 64.898438 7.65625 63.78125 6.910156 C 62.664062 6.164062 61.515625 5.472656 60.328125 4.839844 C 59.144531 4.207031 57.933594 3.636719 56.691406 3.121094 C 55.453125 2.605469 54.1875 2.15625 52.902344 1.765625 C 51.617188 1.375 50.316406 1.050781 49 0.789062 C 47.683594 0.527344 46.355469 0.328125 45.019531 0.199219 C 43.683594 0.0664062 42.34375 0 41 0 Z M 65.292969 29.382812 L 38.371094 59.453125 C 37.898438 59.980469 37.34375 60.390625 36.703125 60.6875 C 36.0625 60.984375 35.386719 61.140625 34.679688 61.160156 C 33.949219 61.203125 33.238281 61.09375 32.554688 60.832031 C 31.871094 60.570312 31.269531 60.175781 30.75 59.65625 L 16.878906 45.410156 C 16.640625 45.167969 16.429688 44.910156 16.246094 44.625 C 16.0625 44.34375 15.90625 44.046875 15.777344 43.734375 C 15.652344 43.421875 15.554688 43.101562 15.492188 42.769531 C 15.429688 42.4375 15.398438 42.105469 15.402344 41.769531 C 15.402344 41.429688 15.4375 41.097656 15.507812 40.765625 C 15.574219 40.4375 15.675781 40.117188 15.804688 39.804688 C 15.9375 39.496094 16.097656 39.199219 16.285156 38.921875 C 16.476562 38.644531 16.691406 38.386719 16.929688 38.148438 C 17.171875 37.910156 17.429688 37.699219 17.710938 37.515625 C 17.996094 37.332031 18.292969 37.175781 18.605469 37.046875 C 18.917969 36.921875 19.238281 36.824219 19.570312 36.761719 C 19.898438 36.699219 20.234375 36.667969 20.570312 36.671875 C 20.910156 36.671875 21.242188 36.707031 21.570312 36.777344 C 21.902344 36.84375 22.222656 36.945312 22.53125 37.074219 C 22.84375 37.207031 23.136719 37.367188 23.417969 37.554688 C 23.695312 37.746094 23.953125 37.960938 24.191406 38.199219 L 34.441406 48.449219 L 57.742188 22.414062 C 57.972656 22.167969 58.222656 21.941406 58.496094 21.742188 C 58.769531 21.546875 59.058594 21.375 59.363281 21.234375 C 59.671875 21.089844 59.988281 20.980469 60.316406 20.902344 C 60.644531 20.824219 60.976562 20.777344 61.316406 20.761719 C 61.652344 20.75 61.988281 20.769531 62.320312 20.820312 C 62.652344 20.875 62.980469 20.957031 63.296875 21.074219 C 63.613281 21.191406 63.914062 21.335938 64.203125 21.515625 C 64.492188 21.691406 64.757812 21.890625 65.007812 22.121094 C 65.253906 22.351562 65.476562 22.601562 65.675781 22.875 C 65.875 23.148438 66.046875 23.4375 66.1875 23.742188 C 66.328125 24.050781 66.4375 24.367188 66.515625 24.695312 C 66.597656 25.023438 66.640625 25.355469 66.65625 25.691406 C 66.667969 26.03125 66.648438 26.367188 66.597656 26.699219 C 66.542969 27.03125 66.460938 27.359375 66.34375 27.675781 C 66.226562 27.992188 66.078125 28.292969 65.902344 28.582031 C 65.726562 28.867188 65.523438 29.136719 65.292969 29.382812 Z M 65.292969 29.382812 "/></g></g></svg>