<svg xmlns="http://www.w3.org/2000/svg" xmlns:xlink="http://www.w3.org/1999/xlink" width="110" zoomAndPan="magnify" viewBox="0 0 82.5 82.499998" height="110" preserveAspectRatio="xMidYMid meet" version="1.2"><defs><clipPath id="205ea6b5a8"><path d="M 0 0 L 82.003906 0 L 82.003906 82.003906 L 0 82.003906 Z M 0 0 "/></clipPath></defs><g id="5c1b3a5d32"><g clip-rule="nonzero" clip-path="url(#205ea6b5a8)"><path style=" stroke:none;fill-rule:nonzero;fill:#85e0c0;fill-opacity:1;" d="M 82.003906 41 C 82.003906 42.34375 81.9375 43.683594 81.804688 45.019531 C 81.675781 46.355469 81.476562 47.683594 81.214844 49 C 80.953125 50.316406 80.628906 51.617188 80.238281 52.902344 C 79.847656 54.1875 79.394531 55.453125 78.882812 56.691406 C 78.367188 57.933594 77.792969 59.144531 77.160156 60.328125 C 76.527344 61.515625 75.839844 62.664062 75.09375 63.78125 C 74.347656 64.898438 73.546875 65.972656 72.695312 67.011719 C 71.84375 68.050781 70.945312 69.042969 69.992188 69.992188 C 69.042969 70.945312 68.050781 71.84375 67.011719 72.695312 C 65.972656 73.546875 64.898438 74.347656 63.78125 75.09375 C 62.664062 75.839844 61.515625 76.527344 60.328125 77.160156 C 59.144531 77.792969 57.933594 78.367188 56.691406 78.882812 C 55.453125 79.394531 54.1875 79.847656 52.902344 80.238281 C 51.617188 80.628906 50.316406 80.953125 49 81.214844 C 47.683594 81.476562 46.355469 81.675781 45.019531 81.804688 C 43.683594 81.9375 42.34375 82.003906 41 82.003906 C 39.660156 82.003906 38.320312 81.9375 36.984375 81.804688 C 35.644531 81.675781 34.320312 81.476562 33.003906 81.214844 C 31.683594 80.953125 30.382812 80.628906 29.097656 80.238281 C 27.8125 79.847656 26.550781 79.394531 25.3125 78.882812 C 24.070312 78.367188 22.859375 77.792969 21.671875 77.160156 C 20.488281 76.527344 19.339844 75.839844 18.222656 75.09375 C 17.105469 74.347656 16.027344 73.546875 14.992188 72.695312 C 13.953125 71.84375 12.957031 70.945312 12.007812 69.992188 C 11.058594 69.042969 10.160156 68.050781 9.308594 67.011719 C 8.453125 65.972656 7.65625 64.898438 6.910156 63.78125 C 6.164062 62.664062 5.472656 61.515625 4.839844 60.328125 C 4.207031 59.144531 3.636719 57.933594 3.121094 56.691406 C 2.605469 55.453125 2.15625 54.1875 1.765625 52.902344 C 1.375 51.617188 1.050781 50.316406 0.789062 49 C 0.527344 47.683594 0.328125 46.355469 0.199219 45.019531 C 0.0664062 43.683594 0 42.34375 0 41 C 0 39.660156 0.0664062 38.320312 0.199219 36.984375 C 0.328125 35.644531 0.527344 34.320312 0.789062 33.003906 C 1.050781 31.683594 1.375 30.382812 1.765625 29.097656 C 2.15625 27.8125 2.605469 26.550781 3.121094 25.3125 C 3.636719 24.070312 4.207031 22.859375 4.839844 21.671875 C 5.472656 20.488281 6.164062 19.339844 6.910156 18.222656 C 7.65625 17.105469 8.453125 16.027344 9.308594 14.992188 C 10.160156 13.953125 11.058594 12.957031 12.007812 12.007812 C 12.957031 11.058594 13.953125 10.160156 14.992188 9.308594 C 16.027344 8.453125 17.105469 7.65625 18.222656 6.910156 C 19.339844 6.164062 20.488281 5.472656 21.671875 4.839844 C 22.859375 4.207031 24.070312 3.636719 25.3125 3.121094 C 26.550781 2.605469 27.8125 2.15625 29.097656 1.765625 C 30.382812 1.375 31.683594 1.050781 33.003906 0.789062 C 34.320312 0.527344 35.644531 0.328125 36.984375 0.199219 C 38.320312 0.0664062 39.660156 0 41 0 C 42.34375 0 43.683594 0.0664062 45.019531 0.199219 C 46.355469 0.328125 47.683594 0.527344 49 0.789062 C 50.316406 1.050781 51.617188 1.375 52.902344 1.765625 C 54.1875 2.15625 55.453125 2.605469 56.691406 3.121094 C 57.933594 3.636719 59.144531 4.207031 60.328125 4.839844 C 61.515625 5.472656 62.664062 6.164062 63.78125 6.910156 C 64.898438 7.65625 65.972656 8.453125 67.011719 9.308594 C 68.050781 10.160156 69.042969 11.058594 69.992188 12.007812 C 70.945312 12.957031 71.84375 13.953125 72.695312 14.992188 C 73.546875 16.027344 74.347656 17.105469 75.09375 18.222656 C 75.839844 19.339844 76.527344 20.488281 77.160156 21.671875 C 77.792969 22.859375 78.367188 24.070312 78.882812 25.3125 C 79.394531 26.550781 79.847656 27.8125 80.238281 29.097656 C 80.628906 30.382812 80.953125 31.683594 81.214844 33.003906 C 81.476562 34.320312 81.675781 35.644531 81.804688 36.984375 C 81.9375 38.320312 82.003906 39.660156 82.003906 41 Z M 82.003906 41 "/></g><path style=" stroke:none;fill-rule:nonzero;fill:#ffffff;fill-opacity:1;" d="M 63.511719 33.257812 C 65.707031 31.058594 65.707031 27.503906 63.511719 25.308594 C 61.316406 23.113281 57.757812 23.113281 55.5625 25.308594 L 36.109375 44.769531 L 26.398438 35.058594 C 24.207031 32.867188 20.644531 32.867188 18.453125 35.058594 C 16.257812 37.253906 16.257812 40.8125 18.453125 43.007812 L 32.136719 56.695312 C 33.191406 57.75 34.621094 58.339844 36.113281 58.339844 C 37.601562 58.339844 39.035156 57.746094 40.085938 56.695312 Z M 63.511719 33.257812 "/></g></svg>