<svg xmlns="http://www.w3.org/2000/svg" xmlns:xlink="http://www.w3.org/1999/xlink" width="110" zoomAndPan="magnify" viewBox="0 0 82.5 82.499998" height="110" preserveAspectRatio="xMidYMid meet" version="1.2"><defs><clipPath id="fffd9bd5ea"><path d="M 17.167969 0 L 64.832031 0 L 64.832031 82 L 17.167969 82 Z M 17.167969 0 "/></clipPath></defs><g id="8c2533f819"><g clip-rule="nonzero" clip-path="url(#fffd9bd5ea)"><path style=" stroke:none;fill-rule:nonzero;fill:#565e6c;fill-opacity:1;" d="M 58.289062 81.960938 C 59.75 81.960938 61.222656 81.402344 62.34375 80.285156 C 64.578125 78.046875 64.578125 74.417969 62.34375 72.179688 L 31.558594 41.417969 L 62.597656 10.378906 C 64.832031 8.144531 64.832031 4.515625 62.597656 2.277344 C 60.359375 0.0429688 56.730469 0.0429688 54.492188 2.277344 L 19.40625 37.367188 C 17.167969 39.601562 17.167969 43.230469 19.40625 45.46875 L 54.238281 80.285156 C 55.359375 81.402344 56.816406 81.960938 58.289062 81.960938 Z M 58.289062 81.960938 "/></g></g></svg>