<svg xmlns="http://www.w3.org/2000/svg" xmlns:xlink="http://www.w3.org/1999/xlink" width="110" zoomAndPan="magnify" viewBox="0 0 82.5 82.499998" height="110" preserveAspectRatio="xMidYMid meet" version="1.2"><defs><clipPath id="c767fb9996"><path d="M 17.167969 0 L 64.878906 0 L 64.878906 82 L 17.167969 82 Z M 17.167969 0 "/></clipPath></defs><g id="f0cafb08e6"><g clip-rule="nonzero" clip-path="url(#c767fb9996)"><path style=" stroke:none;fill-rule:nonzero;fill:#565e6c;fill-opacity:1;" d="M 23.710938 81.960938 C 22.253906 81.960938 20.78125 81.402344 19.660156 80.285156 C 17.421875 78.046875 17.421875 74.417969 19.660156 72.179688 L 50.441406 41.417969 L 19.40625 10.378906 C 17.167969 8.144531 17.167969 4.515625 19.40625 2.277344 C 21.644531 0.0429688 25.273438 0.0429688 27.507812 2.277344 L 62.597656 37.367188 C 64.832031 39.601562 64.832031 43.230469 62.597656 45.46875 L 27.761719 80.285156 C 26.644531 81.402344 25.1875 81.960938 23.710938 81.960938 Z M 23.710938 81.960938 "/></g></g></svg>