<svg xmlns="http://www.w3.org/2000/svg" xmlns:xlink="http://www.w3.org/1999/xlink" width="110" zoomAndPan="magnify" viewBox="0 0 82.5 82.499998" height="110" preserveAspectRatio="xMidYMid meet" version="1.2"><defs><clipPath id="e0a5cef41a"><path d="M 0 0 L 82.003906 0 L 82.003906 82.003906 L 0 82.003906 Z M 0 0 "/></clipPath></defs><g id="74f1a12ebd"><g clip-rule="nonzero" clip-path="url(#e0a5cef41a)"><path style=" stroke:none;fill-rule:nonzero;fill:#000000;fill-opacity:1;" d="M 41 0 C 18.355469 0 0 18.355469 0 41 C 0 63.644531 18.355469 82.003906 41 82.003906 C 63.644531 82.003906 82.003906 63.644531 82.003906 41 C 82.003906 18.355469 63.644531 0 41 0 Z M 41 78.898438 C 20.070312 78.898438 3.105469 61.929688 3.105469 41 C 3.105469 20.074219 20.070312 3.105469 41 3.105469 C 61.929688 3.105469 78.898438 20.070312 78.898438 41 C 78.898438 61.929688 61.929688 78.898438 41 78.898438 Z M 41 78.898438 "/></g><path style=" stroke:none;fill-rule:nonzero;fill:#000000;fill-opacity:1;" d="M 36.1875 61.097656 C 35.160156 61.199219 34.339844 61.3125 33.515625 61.351562 C 28.835938 61.570312 25.371094 59.726562 23.273438 55.425781 C 22.601562 54.054688 21.746094 52.765625 20.855469 51.523438 C 20.320312 50.777344 19.570312 50.179688 18.875 49.558594 L 18.867188 49.550781 C 18.4375 49.171875 18.628906 48.46875 19.191406 48.375 C 19.851562 48.261719 20.46875 48.382812 21.070312 48.535156 C 22.949219 49.011719 24.15625 50.347656 25.121094 51.941406 C 27.296875 55.550781 31.042969 57.054688 35.09375 55.980469 C 35.78125 55.796875 36.085938 55.5 36.234375 54.75 C 36.410156 53.875 36.644531 53.011719 36.902344 52.132812 C 36.976562 51.871094 37 51.605469 36.964844 51.335938 C 36.929688 51.066406 36.847656 50.8125 36.707031 50.578125 C 36.570312 50.34375 36.394531 50.144531 36.175781 49.980469 C 35.953125 49.820312 35.710938 49.707031 35.449219 49.644531 L 35.425781 49.640625 C 31.222656 48.632812 27.589844 46.761719 25.25 42.917969 C 24 40.863281 23.378906 38.601562 23.410156 36.246094 C 23.449219 33.570312 23.683594 30.890625 23.992188 28.230469 C 24.207031 26.355469 25.074219 24.699219 26.421875 23.351562 C 26.890625 22.882812 26.929688 22.488281 26.703125 21.882812 C 25.777344 19.394531 25.9375 16.898438 26.761719 14.40625 C 26.992188 13.703125 27.324219 13.601562 27.996094 13.8125 C 30.078125 14.46875 31.632812 15.824219 33 17.449219 L 33.011719 17.464844 C 33.363281 17.886719 33.804688 18.171875 34.328125 18.324219 C 34.855469 18.476562 35.382812 18.46875 35.902344 18.300781 C 40.226562 16.882812 46.785156 16.863281 50.859375 18.265625 C 51.386719 18.445312 51.914062 18.457031 52.445312 18.308594 C 52.980469 18.160156 53.421875 17.871094 53.777344 17.445312 L 53.792969 17.429688 C 55.160156 15.808594 56.71875 14.460938 58.800781 13.804688 C 59.5 13.585938 59.796875 13.753906 60.019531 14.429688 C 60.832031 16.925781 60.96875 19.40625 60.089844 21.917969 C 59.96875 22.273438 59.972656 22.890625 60.191406 23.113281 C 62.058594 25.003906 62.875 27.355469 63.082031 29.902344 C 63.285156 32.363281 63.5 34.863281 63.273438 37.308594 C 62.675781 43.660156 58.816406 47.359375 52.941406 49.199219 C 52.4375 49.355469 51.925781 49.488281 51.40625 49.613281 C 51.132812 49.675781 50.882812 49.792969 50.660156 49.964844 C 50.433594 50.136719 50.253906 50.34375 50.117188 50.589844 C 49.984375 50.839844 49.902344 51.101562 49.878906 51.382812 C 49.855469 51.664062 49.890625 51.9375 49.984375 52.203125 C 50.785156 54.519531 50.660156 57 50.648438 59.460938 C 50.644531 60.027344 50.644531 60.589844 50.644531 61.15625 C 50.640625 61.625 50.59375 62.089844 50.503906 62.550781 C 50.410156 63.007812 50.273438 63.457031 50.09375 63.886719 C 49.914062 64.320312 49.695312 64.730469 49.433594 65.121094 C 49.171875 65.511719 48.875 65.871094 48.542969 66.203125 C 48.210938 66.53125 47.851562 66.828125 47.460938 67.085938 C 47.074219 67.347656 46.660156 67.566406 46.226562 67.746094 C 45.792969 67.925781 45.347656 68.0625 44.890625 68.152344 C 44.429688 68.242188 43.964844 68.289062 43.496094 68.289062 L 43.335938 68.289062 C 42.867188 68.289062 42.402344 68.242188 41.941406 68.152344 C 41.480469 68.058594 41.035156 67.925781 40.601562 67.746094 C 40.167969 67.566406 39.753906 67.34375 39.363281 67.085938 C 38.976562 66.824219 38.613281 66.527344 38.28125 66.195312 C 37.949219 65.863281 37.652344 65.503906 37.394531 65.113281 C 37.132812 64.722656 36.914062 64.308594 36.734375 63.875 C 36.554688 63.445312 36.417969 62.996094 36.328125 62.535156 C 36.234375 62.074219 36.1875 61.609375 36.1875 61.140625 Z M 36.1875 61.097656 "/></g></svg>