<svg xmlns="http://www.w3.org/2000/svg" xmlns:xlink="http://www.w3.org/1999/xlink" width="110" zoomAndPan="magnify" viewBox="0 0 82.5 82.499998" height="110" preserveAspectRatio="xMidYMid meet" version="1.2"><defs><clipPath id="d8cde1f6d6"><path d="M 0 0 L 82.003906 0 L 82.003906 82.003906 L 0 82.003906 Z M 0 0 "/></clipPath></defs><g id="88d4ceb9de"><path style=" stroke:none;fill-rule:nonzero;fill:#000000;fill-opacity:1;" d="M 19.117188 29.742188 L 25.183594 29.742188 C 25.335938 29.742188 25.484375 29.769531 25.628906 29.828125 C 25.769531 29.886719 25.894531 29.972656 26.003906 30.082031 C 26.113281 30.191406 26.199219 30.316406 26.257812 30.457031 C 26.316406 30.601562 26.34375 30.75 26.34375 30.902344 L 26.34375 64.265625 C 26.34375 64.417969 26.316406 64.566406 26.257812 64.710938 C 26.199219 64.851562 26.113281 64.976562 26.003906 65.085938 C 25.894531 65.195312 25.769531 65.28125 25.628906 65.339844 C 25.484375 65.398438 25.335938 65.429688 25.183594 65.429688 L 19.117188 65.429688 C 18.964844 65.429688 18.816406 65.398438 18.671875 65.339844 C 18.53125 65.28125 18.402344 65.195312 18.292969 65.085938 C 18.1875 64.976562 18.101562 64.851562 18.042969 64.710938 C 17.984375 64.566406 17.953125 64.417969 17.953125 64.265625 L 17.953125 30.902344 C 17.953125 30.75 17.984375 30.601562 18.042969 30.457031 C 18.101562 30.316406 18.1875 30.191406 18.292969 30.082031 C 18.402344 29.972656 18.53125 29.886719 18.671875 29.828125 C 18.816406 29.769531 18.964844 29.742188 19.117188 29.742188 Z M 19.117188 29.742188 "/><path style=" stroke:none;fill-rule:nonzero;fill:#000000;fill-opacity:1;" d="M 27.035156 21.511719 C 27.027344 18.648438 24.972656 16.574219 22.148438 16.574219 C 19.324219 16.574219 17.195312 18.703125 17.195312 21.53125 C 17.195312 22.84375 17.675781 24.066406 18.546875 24.972656 C 19.441406 25.902344 20.671875 26.414062 22.011719 26.414062 C 23.5 26.414062 24.824219 25.890625 25.746094 24.933594 C 26.613281 24.039062 27.070312 22.832031 27.035156 21.53125 C 27.035156 21.523438 27.035156 21.519531 27.035156 21.511719 Z M 27.035156 21.511719 "/><path style=" stroke:none;fill-rule:nonzero;fill:#000000;fill-opacity:1;" d="M 60.257812 32.085938 C 57.238281 29.386719 53.699219 28.980469 51.855469 28.980469 C 49.105469 28.980469 46.484375 29.71875 44.277344 31.109375 C 43.308594 31.714844 42.4375 32.4375 41.660156 33.269531 L 41.507812 30.828125 C 41.488281 30.523438 41.367188 30.261719 41.140625 30.050781 C 40.917969 29.84375 40.652344 29.738281 40.34375 29.738281 L 34.96875 29.738281 C 34.808594 29.738281 34.652344 29.769531 34.503906 29.835938 C 34.355469 29.898438 34.226562 29.992188 34.117188 30.109375 C 34.007812 30.230469 33.925781 30.363281 33.871094 30.515625 C 33.820312 30.671875 33.796875 30.828125 33.808594 30.988281 C 34 33.535156 34.082031 36.210938 34.082031 39.929688 L 34.082031 64.265625 C 34.082031 64.417969 34.113281 64.566406 34.171875 64.710938 C 34.230469 64.851562 34.3125 64.976562 34.421875 65.085938 C 34.53125 65.195312 34.65625 65.28125 34.800781 65.339844 C 34.941406 65.398438 35.089844 65.429688 35.246094 65.429688 L 41.3125 65.429688 C 41.464844 65.429688 41.613281 65.398438 41.757812 65.339844 C 41.898438 65.28125 42.023438 65.195312 42.132812 65.085938 C 42.242188 64.976562 42.328125 64.851562 42.386719 64.710938 C 42.445312 64.566406 42.476562 64.417969 42.476562 64.265625 L 42.476562 44.207031 C 42.476562 43.265625 42.601562 42.378906 42.820312 41.777344 C 42.824219 41.757812 42.832031 41.738281 42.835938 41.71875 C 43.65625 39.042969 46.144531 36.339844 49.859375 36.339844 C 52.15625 36.339844 53.804688 37.125 54.902344 38.742188 C 55.890625 40.203125 56.414062 42.378906 56.414062 45.03125 L 56.414062 64.265625 C 56.414062 64.417969 56.441406 64.566406 56.5 64.710938 C 56.5625 64.851562 56.644531 64.976562 56.753906 65.085938 C 56.863281 65.195312 56.988281 65.28125 57.132812 65.339844 C 57.273438 65.398438 57.421875 65.429688 57.578125 65.429688 L 63.640625 65.429688 C 63.796875 65.429688 63.945312 65.398438 64.085938 65.339844 C 64.230469 65.28125 64.355469 65.195312 64.464844 65.085938 C 64.574219 64.976562 64.65625 64.851562 64.71875 64.710938 C 64.777344 64.566406 64.804688 64.417969 64.804688 64.265625 L 64.804688 44.34375 C 64.804688 41.507812 64.375 38.992188 63.53125 36.867188 C 62.769531 34.957031 61.667969 33.351562 60.257812 32.085938 Z M 60.257812 32.085938 "/><g clip-rule="nonzero" clip-path="url(#d8cde1f6d6)"><path style=" stroke:none;fill-rule:nonzero;fill:#000000;fill-opacity:1;" d="M 71.328125 0 L 10.675781 0 C 4.789062 0 0 4.789062 0 10.675781 L 0 71.328125 C 0 77.214844 4.789062 82.003906 10.675781 82.003906 L 71.328125 82.003906 C 77.214844 82.003906 82.003906 77.214844 82.003906 71.328125 L 82.003906 10.675781 C 82.003906 4.789062 77.214844 0 71.328125 0 Z M 74.507812 11.191406 L 74.507812 70.808594 C 74.507812 71.300781 74.414062 71.773438 74.222656 72.222656 C 74.035156 72.675781 73.769531 73.078125 73.421875 73.421875 C 73.078125 73.769531 72.675781 74.035156 72.222656 74.222656 C 71.773438 74.414062 71.300781 74.507812 70.808594 74.507812 L 11.191406 74.507812 C 10.703125 74.507812 10.230469 74.414062 9.777344 74.222656 C 9.324219 74.035156 8.925781 73.769531 8.578125 73.421875 C 8.234375 73.078125 7.964844 72.675781 7.777344 72.222656 C 7.589844 71.773438 7.496094 71.300781 7.496094 70.808594 L 7.496094 11.191406 C 7.496094 10.703125 7.589844 10.230469 7.777344 9.777344 C 7.964844 9.324219 8.234375 8.925781 8.578125 8.578125 C 8.925781 8.234375 9.324219 7.964844 9.777344 7.777344 C 10.230469 7.589844 10.703125 7.496094 11.191406 7.496094 L 70.808594 7.496094 C 71.300781 7.496094 71.773438 7.589844 72.222656 7.777344 C 72.675781 7.964844 73.078125 8.234375 73.421875 8.578125 C 73.769531 8.925781 74.035156 9.324219 74.222656 9.777344 C 74.414062 10.230469 74.507812 10.703125 74.507812 11.191406 Z M 74.507812 11.191406 "/></g></g></svg>