<svg xmlns="http://www.w3.org/2000/svg" xmlns:xlink="http://www.w3.org/1999/xlink" width="110" zoomAndPan="magnify" viewBox="0 0 82.5 82.499998" height="110" preserveAspectRatio="xMidYMid meet" version="1.2"><defs><clipPath id="493ce65421"><path d="M 0 0 L 82.003906 0 L 82.003906 82.003906 L 0 82.003906 Z M 0 0 "/></clipPath><clipPath id="2db4121b32"><path d="M 0 0 L 82 0 L 82 81.796875 L 0 81.796875 Z M 0 0 "/></clipPath></defs><g id="8cb948b81a"><g clip-rule="nonzero" clip-path="url(#493ce65421)"><path style=" stroke:none;fill-rule:nonzero;fill:#ffffff;fill-opacity:1;" d="M 41 0 C 39.660156 0 38.320312 0.0664062 36.984375 0.199219 C 35.644531 0.328125 34.320312 0.527344 33.003906 0.789062 C 31.683594 1.050781 30.382812 1.375 29.097656 1.765625 C 27.8125 2.15625 26.550781 2.605469 25.3125 3.121094 C 24.070312 3.636719 22.859375 4.207031 21.671875 4.839844 C 20.488281 5.472656 19.339844 6.164062 18.222656 6.910156 C 17.105469 7.65625 16.027344 8.453125 14.992188 9.308594 C 13.953125 10.160156 12.957031 11.058594 12.007812 12.007812 C 11.058594 12.957031 10.160156 13.953125 9.308594 14.992188 C 8.453125 16.027344 7.65625 17.105469 6.910156 18.222656 C 6.164062 19.339844 5.472656 20.488281 4.839844 21.671875 C 4.207031 22.859375 3.636719 24.070312 3.121094 25.3125 C 2.605469 26.550781 2.15625 27.8125 1.765625 29.097656 C 1.375 30.382812 1.050781 31.683594 0.789062 33.003906 C 0.527344 34.320312 0.328125 35.644531 0.199219 36.984375 C 0.0664062 38.320312 0 39.660156 0 41 C 0 42.34375 0.0664062 43.683594 0.199219 45.019531 C 0.328125 46.355469 0.527344 47.683594 0.789062 49 C 1.050781 50.316406 1.375 51.617188 1.765625 52.902344 C 2.15625 54.1875 2.605469 55.453125 3.121094 56.691406 C 3.636719 57.933594 4.207031 59.144531 4.839844 60.328125 C 5.472656 61.515625 6.164062 62.664062 6.910156 63.78125 C 7.65625 64.898438 8.453125 65.972656 9.308594 67.011719 C 10.160156 68.050781 11.058594 69.042969 12.007812 69.992188 C 12.957031 70.945312 13.953125 71.84375 14.992188 72.695312 C 16.027344 73.546875 17.105469 74.347656 18.222656 75.09375 C 19.339844 75.839844 20.488281 76.527344 21.671875 77.160156 C 22.859375 77.792969 24.070312 78.367188 25.3125 78.882812 C 26.550781 79.394531 27.8125 79.847656 29.097656 80.238281 C 30.382812 80.628906 31.683594 80.953125 33.003906 81.214844 C 34.320312 81.476562 35.644531 81.675781 36.984375 81.804688 C 38.320312 81.9375 39.660156 82.003906 41 82.003906 C 42.34375 82.003906 43.683594 81.9375 45.019531 81.804688 C 46.355469 81.675781 47.683594 81.476562 49 81.214844 C 50.316406 80.953125 51.617188 80.628906 52.902344 80.238281 C 54.1875 79.847656 55.453125 79.394531 56.691406 78.882812 C 57.933594 78.367188 59.144531 77.792969 60.328125 77.160156 C 61.515625 76.527344 62.664062 75.839844 63.78125 75.09375 C 64.898438 74.347656 65.972656 73.546875 67.011719 72.695312 C 68.050781 71.84375 69.042969 70.945312 69.992188 69.992188 C 70.945312 69.042969 71.84375 68.050781 72.695312 67.011719 C 73.546875 65.972656 74.347656 64.898438 75.09375 63.78125 C 75.839844 62.664062 76.527344 61.515625 77.160156 60.328125 C 77.792969 59.144531 78.367188 57.933594 78.882812 56.691406 C 79.394531 55.453125 79.847656 54.1875 80.238281 52.902344 C 80.628906 51.617188 80.953125 50.316406 81.214844 49 C 81.476562 47.683594 81.675781 46.355469 81.804688 45.019531 C 81.9375 43.683594 82.003906 42.34375 82.003906 41 C 82.003906 39.660156 81.9375 38.320312 81.804688 36.984375 C 81.675781 35.644531 81.476562 34.320312 81.214844 33.003906 C 80.953125 31.683594 80.628906 30.382812 80.238281 29.097656 C 79.847656 27.8125 79.394531 26.550781 78.882812 25.3125 C 78.367188 24.070312 77.792969 22.859375 77.160156 21.671875 C 76.527344 20.488281 75.839844 19.339844 75.09375 18.222656 C 74.347656 17.105469 73.546875 16.027344 72.695312 14.992188 C 71.84375 13.953125 70.945312 12.957031 69.992188 12.007812 C 69.042969 11.058594 68.050781 10.160156 67.011719 9.308594 C 65.972656 8.453125 64.898438 7.65625 63.78125 6.910156 C 62.664062 6.164062 61.515625 5.472656 60.328125 4.839844 C 59.144531 4.207031 57.933594 3.636719 56.691406 3.121094 C 55.453125 2.605469 54.1875 2.15625 52.902344 1.765625 C 51.617188 1.375 50.316406 1.050781 49 0.789062 C 47.683594 0.527344 46.355469 0.328125 45.019531 0.199219 C 43.683594 0.0664062 42.34375 0 41 0 Z M 65.292969 29.382812 L 38.371094 59.453125 C 37.898438 59.980469 37.34375 60.390625 36.703125 60.6875 C 36.0625 60.984375 35.386719 61.140625 34.679688 61.160156 C 33.949219 61.203125 33.238281 61.09375 32.554688 60.832031 C 31.871094 60.570312 31.269531 60.175781 30.75 59.65625 L 16.878906 45.410156 C 16.640625 45.167969 16.429688 44.910156 16.246094 44.625 C 16.0625 44.34375 15.90625 44.046875 15.777344 43.734375 C 15.652344 43.421875 15.554688 43.101562 15.492188 42.769531 C 15.429688 42.4375 15.398438 42.105469 15.402344 41.769531 C 15.402344 41.429688 15.4375 41.097656 15.507812 40.765625 C 15.574219 40.4375 15.675781 40.117188 15.804688 39.804688 C 15.9375 39.496094 16.097656 39.199219 16.285156 38.921875 C 16.476562 38.644531 16.691406 38.386719 16.929688 38.148438 C 17.171875 37.910156 17.429688 37.699219 17.710938 37.515625 C 17.996094 37.332031 18.292969 37.175781 18.605469 37.046875 C 18.917969 36.921875 19.238281 36.824219 19.570312 36.761719 C 19.898438 36.699219 20.234375 36.667969 20.570312 36.671875 C 20.910156 36.671875 21.242188 36.707031 21.570312 36.777344 C 21.902344 36.84375 22.222656 36.945312 22.53125 37.074219 C 22.84375 37.207031 23.136719 37.367188 23.417969 37.554688 C 23.695312 37.746094 23.953125 37.960938 24.191406 38.199219 L 34.441406 48.449219 L 57.742188 22.414062 C 57.972656 22.167969 58.222656 21.941406 58.496094 21.742188 C 58.769531 21.546875 59.058594 21.375 59.363281 21.234375 C 59.671875 21.089844 59.988281 20.980469 60.316406 20.902344 C 60.644531 20.824219 60.976562 20.777344 61.316406 20.761719 C 61.652344 20.75 61.988281 20.769531 62.320312 20.820312 C 62.652344 20.875 62.980469 20.957031 63.296875 21.074219 C 63.613281 21.191406 63.914062 21.335938 64.203125 21.515625 C 64.492188 21.691406 64.757812 21.890625 65.007812 22.121094 C 65.253906 22.351562 65.476562 22.601562 65.675781 22.875 C 65.875 23.148438 66.046875 23.4375 66.1875 23.742188 C 66.328125 24.050781 66.4375 24.367188 66.515625 24.695312 C 66.597656 25.023438 66.640625 25.355469 66.65625 25.691406 C 66.667969 26.03125 66.648438 26.367188 66.597656 26.699219 C 66.542969 27.03125 66.460938 27.359375 66.34375 27.675781 C 66.226562 27.992188 66.078125 28.292969 65.902344 28.582031 C 65.726562 28.867188 65.523438 29.136719 65.292969 29.382812 Z M 65.292969 29.382812 "/></g><g clip-rule="nonzero" clip-path="url(#2db4121b32)"><path style=" stroke:none;fill-rule:nonzero;fill:#1ba553;fill-opacity:1;" d="M 40.972656 -0.128906 C 18.207031 -0.0546875 0.0078125 18.414062 0.308594 41.125 C 0.332031 43.410156 0.554688 45.675781 0.964844 47.925781 C 1.375 50.175781 1.972656 52.375 2.757812 54.523438 C 3.542969 56.667969 4.503906 58.738281 5.636719 60.722656 C 6.773438 62.710938 8.066406 64.585938 9.519531 66.355469 C 9.75 66.632812 9.933594 66.941406 10.070312 67.277344 C 10.207031 67.613281 10.289062 67.960938 10.320312 68.320312 C 10.351562 68.679688 10.332031 69.035156 10.253906 69.390625 C 10.179688 69.742188 10.050781 70.078125 9.875 70.394531 L 6.359375 76.679688 C 5.386719 78.421875 6.972656 80.480469 8.910156 79.988281 L 20.816406 76.964844 C 21.675781 76.746094 22.503906 76.832031 23.296875 77.21875 C 28.625 79.800781 34.25 81.15625 40.171875 81.28125 C 63.0625 81.796875 81.851562 63.550781 81.921875 40.710938 C 81.992188 18.121094 63.621094 -0.207031 40.972656 -0.128906 Z M 41.113281 76.277344 C 39.941406 76.277344 38.773438 76.21875 37.605469 76.105469 C 36.441406 75.988281 35.28125 75.816406 34.132812 75.589844 C 32.984375 75.363281 31.847656 75.078125 30.726562 74.738281 C 29.605469 74.398438 28.503906 74.007812 27.421875 73.558594 C 26.335938 73.113281 25.28125 72.613281 24.246094 72.0625 C 23.210938 71.511719 22.207031 70.910156 21.234375 70.261719 C 20.261719 69.609375 19.320312 68.914062 18.414062 68.171875 C 17.507812 67.433594 16.640625 66.648438 15.8125 65.820312 C 14.984375 64.996094 14.199219 64.128906 13.453125 63.226562 C 12.710938 62.320312 12.011719 61.382812 11.363281 60.410156 C 10.710938 59.441406 10.109375 58.4375 9.558594 57.40625 C 9.003906 56.375 8.503906 55.320312 8.054688 54.242188 C 7.605469 53.160156 7.210938 52.0625 6.871094 50.941406 C 6.53125 49.824219 6.25 48.691406 6.019531 47.542969 C 5.789062 46.398438 5.617188 45.242188 5.503906 44.078125 C 5.390625 42.914062 5.332031 41.75 5.332031 40.582031 C 5.332031 20.867188 21.351562 4.886719 41.113281 4.886719 C 60.796875 4.886719 76.769531 20.742188 76.894531 40.351562 C 77.019531 60.027344 60.835938 76.277344 41.113281 76.277344 Z M 41.113281 76.277344 "/></g><path style=" stroke:none;fill-rule:nonzero;fill:#ffffff;fill-opacity:1;" d="M 76.894531 40.582031 C 76.894531 41.75 76.835938 42.914062 76.722656 44.078125 C 76.605469 45.242188 76.4375 46.398438 76.207031 47.542969 C 75.976562 48.691406 75.695312 49.824219 75.355469 50.941406 C 75.011719 52.0625 74.621094 53.160156 74.171875 54.242188 C 73.722656 55.320312 73.222656 56.375 72.667969 57.40625 C 72.117188 58.4375 71.515625 59.441406 70.863281 60.410156 C 70.214844 61.382812 69.515625 62.320312 68.773438 63.226562 C 68.027344 64.128906 67.242188 64.996094 66.414062 65.820312 C 65.585938 66.648438 64.71875 67.429688 63.8125 68.171875 C 62.90625 68.914062 61.964844 69.609375 60.992188 70.261719 C 60.019531 70.910156 59.015625 71.507812 57.980469 72.0625 C 56.945312 72.613281 55.890625 73.109375 54.804688 73.558594 C 53.722656 74.007812 52.621094 74.398438 51.5 74.738281 C 50.378906 75.078125 49.242188 75.363281 48.09375 75.589844 C 46.945312 75.816406 45.785156 75.988281 44.621094 76.105469 C 43.453125 76.21875 42.285156 76.277344 41.113281 76.277344 C 39.941406 76.277344 38.773438 76.21875 37.605469 76.105469 C 36.441406 75.988281 35.28125 75.816406 34.132812 75.589844 C 32.984375 75.363281 31.847656 75.078125 30.726562 74.738281 C 29.605469 74.398438 28.503906 74.007812 27.421875 73.558594 C 26.335938 73.109375 25.28125 72.613281 24.246094 72.0625 C 23.210938 71.507812 22.207031 70.910156 21.234375 70.261719 C 20.261719 69.609375 19.320312 68.914062 18.414062 68.171875 C 17.507812 67.429688 16.640625 66.648438 15.8125 65.820312 C 14.984375 64.996094 14.199219 64.128906 13.453125 63.226562 C 12.710938 62.320312 12.011719 61.382812 11.363281 60.410156 C 10.710938 59.441406 10.109375 58.4375 9.558594 57.40625 C 9.003906 56.375 8.503906 55.320312 8.054688 54.242188 C 7.605469 53.160156 7.210938 52.0625 6.871094 50.941406 C 6.53125 49.824219 6.25 48.691406 6.019531 47.542969 C 5.789062 46.398438 5.617188 45.242188 5.503906 44.078125 C 5.390625 42.914062 5.332031 41.75 5.332031 40.582031 C 5.332031 39.410156 5.390625 38.246094 5.503906 37.082031 C 5.617188 35.917969 5.789062 34.761719 6.019531 33.617188 C 6.25 32.46875 6.53125 31.335938 6.871094 30.21875 C 7.210938 29.101562 7.605469 28 8.054688 26.921875 C 8.503906 25.839844 9.003906 24.785156 9.558594 23.753906 C 10.109375 22.722656 10.710938 21.722656 11.363281 20.75 C 12.011719 19.777344 12.710938 18.839844 13.453125 17.9375 C 14.199219 17.03125 14.984375 16.167969 15.8125 15.339844 C 16.640625 14.515625 17.507812 13.730469 18.414062 12.988281 C 19.320312 12.246094 20.261719 11.550781 21.234375 10.902344 C 22.207031 10.25 23.210938 9.652344 24.246094 9.101562 C 25.28125 8.550781 26.335938 8.050781 27.421875 7.601562 C 28.503906 7.15625 29.605469 6.761719 30.726562 6.421875 C 31.847656 6.082031 32.984375 5.800781 34.132812 5.570312 C 35.28125 5.34375 36.441406 5.171875 37.605469 5.058594 C 38.773438 4.941406 39.941406 4.886719 41.113281 4.886719 C 42.285156 4.886719 43.453125 4.941406 44.621094 5.058594 C 45.785156 5.171875 46.945312 5.34375 48.09375 5.570312 C 49.242188 5.800781 50.378906 6.082031 51.5 6.421875 C 52.621094 6.761719 53.722656 7.15625 54.804688 7.601562 C 55.890625 8.050781 56.945312 8.550781 57.980469 9.101562 C 59.015625 9.652344 60.019531 10.25 60.992188 10.902344 C 61.964844 11.550781 62.90625 12.246094 63.8125 12.988281 C 64.71875 13.730469 65.585938 14.515625 66.414062 15.339844 C 67.242188 16.167969 68.027344 17.03125 68.773438 17.9375 C 69.515625 18.839844 70.214844 19.777344 70.863281 20.75 C 71.515625 21.722656 72.117188 22.722656 72.667969 23.753906 C 73.222656 24.785156 73.722656 25.839844 74.171875 26.921875 C 74.621094 28 75.011719 29.101562 75.355469 30.21875 C 75.695312 31.335938 75.976562 32.46875 76.207031 33.617188 C 76.4375 34.761719 76.605469 35.917969 76.722656 37.082031 C 76.835938 38.246094 76.894531 39.410156 76.894531 40.582031 Z M 76.894531 40.582031 "/><path style=" stroke:none;fill-rule:nonzero;fill:#1ba553;fill-opacity:1;" d="M 34.71875 23.226562 L 34.734375 23.257812 L 36.867188 27.480469 C 37.101562 27.9375 37.253906 28.421875 37.328125 28.925781 C 37.402344 29.433594 37.390625 29.9375 37.300781 30.441406 C 37.210938 30.945312 37.042969 31.425781 36.796875 31.875 C 36.550781 32.324219 36.242188 32.722656 35.867188 33.070312 C 35.492188 33.417969 35.183594 33.8125 34.9375 34.257812 C 34.691406 34.707031 34.523438 35.179688 34.429688 35.679688 C 34.339844 36.179688 34.328125 36.683594 34.398438 37.1875 C 34.46875 37.691406 34.621094 38.171875 34.847656 38.625 C 36.128906 41.191406 38.347656 44.730469 41.734375 47.28125 C 42.113281 47.570312 42.527344 47.796875 42.976562 47.960938 C 43.421875 48.121094 43.882812 48.214844 44.359375 48.242188 C 44.835938 48.265625 45.304688 48.21875 45.765625 48.105469 C 46.230469 47.988281 46.664062 47.808594 47.074219 47.5625 L 48.445312 46.726562 C 49.070312 46.347656 49.746094 46.125 50.476562 46.058594 C 51.203125 45.992188 51.910156 46.085938 52.59375 46.34375 L 58.054688 48.417969 C 58.347656 48.527344 58.625 48.664062 58.886719 48.832031 C 59.152344 48.996094 59.394531 49.183594 59.621094 49.398438 C 59.847656 49.609375 60.050781 49.84375 60.234375 50.097656 C 60.414062 50.347656 60.566406 50.617188 60.695312 50.898438 C 60.824219 51.183594 60.921875 51.476562 60.992188 51.777344 C 61.058594 52.082031 61.101562 52.386719 61.109375 52.699219 C 61.117188 53.007812 61.097656 53.316406 61.046875 53.621094 C 60.992188 53.929688 60.910156 54.226562 60.800781 54.515625 C 60.738281 54.683594 60.664062 54.847656 60.582031 55.003906 L 59.070312 57.929688 C 58.824219 58.410156 58.503906 58.832031 58.113281 59.199219 C 57.722656 59.566406 57.28125 59.863281 56.789062 60.082031 C 56.296875 60.300781 55.785156 60.429688 55.246094 60.476562 C 54.710938 60.519531 54.183594 60.472656 53.664062 60.339844 C 45.082031 58.125 24.636719 50.429688 22.988281 27.152344 C 22.953125 26.691406 22.988281 26.234375 23.089844 25.78125 C 23.191406 25.328125 23.359375 24.902344 23.585938 24.5 C 23.8125 24.09375 24.09375 23.730469 24.429688 23.410156 C 24.761719 23.089844 25.136719 22.824219 25.550781 22.613281 L 28.335938 21.183594 C 28.613281 21.042969 28.898438 20.929688 29.199219 20.84375 C 29.5 20.757812 29.804688 20.703125 30.113281 20.675781 C 30.421875 20.652344 30.734375 20.65625 31.042969 20.691406 C 31.351562 20.726562 31.65625 20.792969 31.949219 20.886719 C 32.246094 20.980469 32.53125 21.105469 32.804688 21.253906 C 33.074219 21.40625 33.332031 21.582031 33.566406 21.78125 C 33.804688 21.984375 34.019531 22.203125 34.214844 22.449219 C 34.40625 22.691406 34.574219 22.949219 34.71875 23.226562 Z M 34.71875 23.226562 "/></g></svg>